<svg xmlns="http://www.w3.org/2000/svg" xmlns:xlink="http://www.w3.org/1999/xlink" width="965" zoomAndPan="magnify" viewBox="0 0 723.75 150.749998" height="201" preserveAspectRatio="xMidYMid meet" version="1.0"><defs><filter x="0%" y="0%" width="100%" height="100%" id="4915b1a7a7"><feColorMatrix values="0 0 0 0 1 0 0 0 0 1 0 0 0 0 1 0 0 0 1 0" color-interpolation-filters="sRGB"/></filter><g/><clipPath id="a40256fa59"><path d="M 0.472656 0 L 723.027344 0 L 723.027344 150.5 L 0.472656 150.5 Z M 0.472656 0 " clip-rule="nonzero"/></clipPath><clipPath id="f4667de38a"><path d="M 0.472656 0 L 723.027344 0 L 723.027344 150.5 L 0.472656 150.5 Z M 0.472656 0 " clip-rule="nonzero"/></clipPath><clipPath id="65c19e5489"><path d="M 0.472656 0 L 723.027344 0 L 723.027344 150.5 L 0.472656 150.5 Z M 0.472656 0 " clip-rule="nonzero"/></clipPath><clipPath id="259e807dad"><path d="M 0.472656 0 L 723.027344 0 L 723.027344 150.5 L 0.472656 150.5 Z M 0.472656 0 " clip-rule="nonzero"/></clipPath><linearGradient x1="-17.615854" gradientTransform="matrix(1.869698, 0, 0, 1.867803, 33.410668, 15.217036)" y1="31.5" x2="368.837869" gradientUnits="userSpaceOnUse" y2="31.5" id="37629f9aa0"><stop stop-opacity="1" stop-color="rgb(50.979614%, 81.568909%, 97.648621%)" offset="0"/><stop stop-opacity="1" stop-color="rgb(50.979614%, 81.568909%, 97.648621%)" offset="0.03125"/><stop stop-opacity="1" stop-color="rgb(50.993347%, 81.55365%, 97.645569%)" offset="0.046875"/><stop stop-opacity="1" stop-color="rgb(51.190186%, 81.358337%, 97.605896%)" offset="0.0625"/><stop stop-opacity="1" stop-color="rgb(51.551819%, 80.995178%, 97.53418%)" offset="0.078125"/><stop stop-opacity="1" stop-color="rgb(51.913452%, 80.633545%, 97.460938%)" offset="0.09375"/><stop stop-opacity="1" stop-color="rgb(52.275085%, 80.271912%, 97.389221%)" offset="0.109375"/><stop stop-opacity="1" stop-color="rgb(52.636719%, 79.910278%, 97.315979%)" offset="0.125"/><stop stop-opacity="1" stop-color="rgb(52.998352%, 79.548645%, 97.244263%)" offset="0.140625"/><stop stop-opacity="1" stop-color="rgb(53.361511%, 79.185486%, 97.171021%)" offset="0.15625"/><stop stop-opacity="1" stop-color="rgb(53.723145%, 78.823853%, 97.099304%)" offset="0.171875"/><stop stop-opacity="1" stop-color="rgb(54.084778%, 78.462219%, 97.026062%)" offset="0.1875"/><stop stop-opacity="1" stop-color="rgb(54.446411%, 78.100586%, 96.954346%)" offset="0.203125"/><stop stop-opacity="1" stop-color="rgb(54.808044%, 77.738953%, 96.881104%)" offset="0.21875"/><stop stop-opacity="1" stop-color="rgb(55.171204%, 77.377319%, 96.809387%)" offset="0.234375"/><stop stop-opacity="1" stop-color="rgb(55.532837%, 77.01416%, 96.736145%)" offset="0.25"/><stop stop-opacity="1" stop-color="rgb(55.89447%, 76.652527%, 96.664429%)" offset="0.265625"/><stop stop-opacity="1" stop-color="rgb(56.256104%, 76.290894%, 96.591187%)" offset="0.28125"/><stop stop-opacity="1" stop-color="rgb(56.617737%, 75.92926%, 96.51947%)" offset="0.296875"/><stop stop-opacity="1" stop-color="rgb(56.980896%, 75.567627%, 96.446228%)" offset="0.3125"/><stop stop-opacity="1" stop-color="rgb(57.342529%, 75.204468%, 96.374512%)" offset="0.328125"/><stop stop-opacity="1" stop-color="rgb(57.704163%, 74.842834%, 96.30127%)" offset="0.34375"/><stop stop-opacity="1" stop-color="rgb(58.065796%, 74.481201%, 96.229553%)" offset="0.359375"/><stop stop-opacity="1" stop-color="rgb(58.427429%, 74.119568%, 96.156311%)" offset="0.375"/><stop stop-opacity="1" stop-color="rgb(58.790588%, 73.757935%, 96.084595%)" offset="0.390625"/><stop stop-opacity="1" stop-color="rgb(59.152222%, 73.394775%, 96.011353%)" offset="0.40625"/><stop stop-opacity="1" stop-color="rgb(59.513855%, 73.033142%, 95.939636%)" offset="0.421875"/><stop stop-opacity="1" stop-color="rgb(59.875488%, 72.671509%, 95.866394%)" offset="0.4375"/><stop stop-opacity="1" stop-color="rgb(60.237122%, 72.309875%, 95.794678%)" offset="0.453125"/><stop stop-opacity="1" stop-color="rgb(60.598755%, 71.948242%, 95.721436%)" offset="0.46875"/><stop stop-opacity="1" stop-color="rgb(60.961914%, 71.585083%, 95.649719%)" offset="0.484375"/><stop stop-opacity="1" stop-color="rgb(61.323547%, 71.22345%, 95.576477%)" offset="0.5"/><stop stop-opacity="1" stop-color="rgb(61.685181%, 70.861816%, 95.504761%)" offset="0.515625"/><stop stop-opacity="1" stop-color="rgb(62.046814%, 70.500183%, 95.431519%)" offset="0.53125"/><stop stop-opacity="1" stop-color="rgb(62.408447%, 70.13855%, 95.359802%)" offset="0.546875"/><stop stop-opacity="1" stop-color="rgb(62.771606%, 69.776917%, 95.28656%)" offset="0.5625"/><stop stop-opacity="1" stop-color="rgb(63.13324%, 69.413757%, 95.214844%)" offset="0.578125"/><stop stop-opacity="1" stop-color="rgb(63.494873%, 69.052124%, 95.141602%)" offset="0.59375"/><stop stop-opacity="1" stop-color="rgb(63.856506%, 68.690491%, 95.069885%)" offset="0.609375"/><stop stop-opacity="1" stop-color="rgb(64.21814%, 68.328857%, 94.996643%)" offset="0.625"/><stop stop-opacity="1" stop-color="rgb(64.581299%, 67.967224%, 94.924927%)" offset="0.640625"/><stop stop-opacity="1" stop-color="rgb(64.942932%, 67.604065%, 94.851685%)" offset="0.65625"/><stop stop-opacity="1" stop-color="rgb(65.304565%, 67.242432%, 94.779968%)" offset="0.671875"/><stop stop-opacity="1" stop-color="rgb(65.666199%, 66.880798%, 94.706726%)" offset="0.6875"/><stop stop-opacity="1" stop-color="rgb(66.027832%, 66.519165%, 94.63501%)" offset="0.703125"/><stop stop-opacity="1" stop-color="rgb(66.390991%, 66.157532%, 94.561768%)" offset="0.71875"/><stop stop-opacity="1" stop-color="rgb(66.752625%, 65.794373%, 94.490051%)" offset="0.734375"/><stop stop-opacity="1" stop-color="rgb(67.114258%, 65.432739%, 94.416809%)" offset="0.75"/><stop stop-opacity="1" stop-color="rgb(67.475891%, 65.071106%, 94.345093%)" offset="0.765625"/><stop stop-opacity="1" stop-color="rgb(67.837524%, 64.709473%, 94.271851%)" offset="0.78125"/><stop stop-opacity="1" stop-color="rgb(68.199158%, 64.347839%, 94.200134%)" offset="0.796875"/><stop stop-opacity="1" stop-color="rgb(68.562317%, 63.98468%, 94.126892%)" offset="0.8125"/><stop stop-opacity="1" stop-color="rgb(68.92395%, 63.623047%, 94.055176%)" offset="0.828125"/><stop stop-opacity="1" stop-color="rgb(69.285583%, 63.261414%, 93.981934%)" offset="0.84375"/><stop stop-opacity="1" stop-color="rgb(69.647217%, 62.89978%, 93.910217%)" offset="0.859375"/><stop stop-opacity="1" stop-color="rgb(70.00885%, 62.538147%, 93.836975%)" offset="0.875"/><stop stop-opacity="1" stop-color="rgb(70.372009%, 62.176514%, 93.765259%)" offset="0.890625"/><stop stop-opacity="1" stop-color="rgb(70.733643%, 61.813354%, 93.692017%)" offset="0.90625"/><stop stop-opacity="1" stop-color="rgb(71.095276%, 61.451721%, 93.6203%)" offset="0.921875"/><stop stop-opacity="1" stop-color="rgb(71.456909%, 61.090088%, 93.547058%)" offset="0.9375"/><stop stop-opacity="1" stop-color="rgb(71.818542%, 60.728455%, 93.475342%)" offset="0.953125"/><stop stop-opacity="1" stop-color="rgb(72.181702%, 60.366821%, 93.4021%)" offset="0.96875"/><stop stop-opacity="1" stop-color="rgb(72.45636%, 60.092163%, 93.347168%)" offset="1"/></linearGradient><clipPath id="1029c802f7"><rect x="0" width="724" y="0" height="151"/></clipPath><clipPath id="8b54947bd2"><path d="M 0.472656 0 L 723.027344 0 L 723.027344 150.5 L 0.472656 150.5 Z M 0.472656 0 " clip-rule="nonzero"/></clipPath><clipPath id="c34a858670"><rect x="0" width="724" y="0" height="151"/></clipPath><clipPath id="f5f1518329"><rect x="0" width="724" y="0" height="151"/></clipPath><mask id="8686f0ef77"><g filter="url(#4915b1a7a7)"><g transform="matrix(1, 0, 0, 1, 0.000000000000000056, 0.000000000000005638)"><g clip-path="url(#f5f1518329)"><g clip-path="url(#8b54947bd2)"><g transform="matrix(1, 0, 0, 1, 0.000000000000000056, 0.000000000000005638)"><g clip-path="url(#c34a858670)"><g fill="#000000" fill-opacity="1"><g transform="translate(34.094824, 103.978904)"><g><path d="M 7.03125 -59.34375 L 20.765625 -59.34375 L 20.765625 -11.1875 L 50.53125 -11.1875 L 50.53125 0 L 7.03125 0 Z M 7.03125 -59.34375 "/></g></g></g><g fill="#000000" fill-opacity="1"><g transform="translate(103.958502, 103.978904)"><g><path d="M 46.125 -12.71875 L 18.5625 -12.71875 L 13.3125 0 L -0.765625 0 L 25.6875 -59.34375 L 39.25 -59.34375 L 65.796875 0 L 51.375 0 Z M 41.796875 -23.140625 L 32.390625 -45.859375 L 22.96875 -23.140625 Z M 41.796875 -23.140625 "/></g></g></g><g fill="#000000" fill-opacity="1"><g transform="translate(187.048392, 103.978904)"><g><path d="M 26.53125 1.015625 C 21.84375 1.015625 17.304688 0.378906 12.921875 -0.890625 C 8.546875 -2.160156 5.03125 -3.8125 2.375 -5.84375 L 7.03125 -16.1875 C 9.582031 -14.320312 12.609375 -12.820312 16.109375 -11.6875 C 19.609375 -10.5625 23.113281 -10 26.625 -10 C 30.519531 -10 33.398438 -10.578125 35.265625 -11.734375 C 37.128906 -12.898438 38.0625 -14.441406 38.0625 -16.359375 C 38.0625 -17.773438 37.507812 -18.945312 36.40625 -19.875 C 35.3125 -20.8125 33.898438 -21.5625 32.171875 -22.125 C 30.453125 -22.6875 28.125 -23.3125 25.1875 -24 C 20.65625 -25.070312 16.945312 -26.144531 14.0625 -27.21875 C 11.1875 -28.289062 8.71875 -30.015625 6.65625 -32.390625 C 4.59375 -34.765625 3.5625 -37.925781 3.5625 -41.875 C 3.5625 -45.320312 4.492188 -48.445312 6.359375 -51.25 C 8.222656 -54.050781 11.035156 -56.269531 14.796875 -57.90625 C 18.554688 -59.539062 23.148438 -60.359375 28.578125 -60.359375 C 32.359375 -60.359375 36.054688 -59.90625 39.671875 -59 C 43.296875 -58.101562 46.460938 -56.804688 49.171875 -55.109375 L 44.9375 -44.671875 C 39.445312 -47.785156 33.960938 -49.34375 28.484375 -49.34375 C 24.640625 -49.34375 21.796875 -48.71875 19.953125 -47.46875 C 18.117188 -46.226562 17.203125 -44.59375 17.203125 -42.5625 C 17.203125 -40.53125 18.257812 -39.019531 20.375 -38.03125 C 22.5 -37.039062 25.738281 -36.0625 30.09375 -35.09375 C 34.613281 -34.019531 38.316406 -32.945312 41.203125 -31.875 C 44.085938 -30.800781 46.5625 -29.101562 48.625 -26.78125 C 50.6875 -24.46875 51.71875 -21.332031 51.71875 -17.375 C 51.71875 -13.988281 50.769531 -10.894531 48.875 -8.09375 C 46.976562 -5.300781 44.132812 -3.082031 40.34375 -1.4375 C 36.5625 0.195312 31.957031 1.015625 26.53125 1.015625 Z M 26.53125 1.015625 "/></g></g></g><g fill="#000000" fill-opacity="1"><g transform="translate(258.438138, 103.978904)"><g><path d="M 19.328125 -48.15625 L 0.34375 -48.15625 L 0.34375 -59.34375 L 52.0625 -59.34375 L 52.0625 -48.15625 L 33.0625 -48.15625 L 33.0625 0 L 19.328125 0 Z M 19.328125 -48.15625 "/></g></g></g><g fill="#000000" fill-opacity="1"><g transform="translate(327.877817, 103.978904)"><g><path d="M 64.09375 -59.34375 L 38.40625 0 L 24.84375 0 L -0.765625 -59.34375 L 14.078125 -59.34375 L 32.125 -16.953125 L 50.4375 -59.34375 Z M 64.09375 -59.34375 "/></g></g></g><g fill="#000000" fill-opacity="1"><g transform="translate(406.050128, 103.978904)"><g><path d="M 46.125 -12.71875 L 18.5625 -12.71875 L 13.3125 0 L -0.765625 0 L 25.6875 -59.34375 L 39.25 -59.34375 L 65.796875 0 L 51.375 0 Z M 41.796875 -23.140625 L 32.390625 -45.859375 L 22.96875 -23.140625 Z M 41.796875 -23.140625 "/></g></g></g><g fill="#000000" fill-opacity="1"><g transform="translate(487.868219, 103.978904)"><g><path d="M 33.40625 1.015625 C 24.925781 1.015625 18.328125 -1.328125 13.609375 -6.015625 C 8.890625 -10.710938 6.53125 -17.410156 6.53125 -26.109375 L 6.53125 -59.34375 L 20.265625 -59.34375 L 20.265625 -26.625 C 20.265625 -16 24.671875 -10.6875 33.484375 -10.6875 C 37.785156 -10.6875 41.066406 -11.96875 43.328125 -14.53125 C 45.585938 -17.101562 46.71875 -21.132812 46.71875 -26.625 L 46.71875 -59.34375 L 60.28125 -59.34375 L 60.28125 -26.109375 C 60.28125 -17.410156 57.921875 -10.710938 53.203125 -6.015625 C 48.484375 -1.328125 41.882812 1.015625 33.40625 1.015625 Z M 33.40625 1.015625 "/></g></g></g><g fill="#000000" fill-opacity="1"><g transform="translate(572.823352, 103.978904)"><g><path d="M 7.03125 -59.34375 L 20.765625 -59.34375 L 20.765625 -11.1875 L 50.53125 -11.1875 L 50.53125 0 L 7.03125 0 Z M 7.03125 -59.34375 "/></g></g></g><g fill="#000000" fill-opacity="1"><g transform="translate(636.667186, 103.978904)"><g><path d="M 19.328125 -48.15625 L 0.34375 -48.15625 L 0.34375 -59.34375 L 52.0625 -59.34375 L 52.0625 -48.15625 L 33.0625 -48.15625 L 33.0625 0 L 19.328125 0 Z M 19.328125 -48.15625 "/></g></g></g></g></g></g></g></g></g></mask><clipPath id="c936dc9c28"><path d="M 0.472656 0 L 723.027344 0 L 723.027344 150.5 L 0.472656 150.5 Z M 0.472656 0 " clip-rule="nonzero"/></clipPath><clipPath id="da2dc99f19"><rect x="0" width="724" y="0" height="151"/></clipPath><clipPath id="42c1aa1766"><rect x="0" width="724" y="0" height="151"/></clipPath><clipPath id="dbca8d485f"><rect x="0" width="724" y="0" height="151"/></clipPath></defs><g fill="#000000" fill-opacity="1"><g transform="translate(343.901959, 72.441333)"><g><path d="M 1.578125 0.0625 C 1.347656 0.0625 1.171875 0 1.046875 -0.125 C 0.921875 -0.25 0.859375 -0.414062 0.859375 -0.625 C 0.859375 -0.832031 0.921875 -1 1.046875 -1.125 C 1.171875 -1.257812 1.347656 -1.328125 1.578125 -1.328125 C 1.796875 -1.328125 1.96875 -1.265625 2.09375 -1.140625 C 2.226562 -1.015625 2.296875 -0.847656 2.296875 -0.640625 C 2.296875 -0.429688 2.226562 -0.257812 2.09375 -0.125 C 1.96875 0 1.796875 0.0625 1.578125 0.0625 Z M 1.578125 0.0625 "/></g></g></g><g clip-path="url(#a40256fa59)"><g transform="matrix(1, 0, 0, 1, 0.000000000000000056, 0.000000000000005638)"><g clip-path="url(#dbca8d485f)"><g clip-path="url(#f4667de38a)"><g transform="matrix(1, 0, 0, 1, 0.000000000000000056, 0.000000000000005638)"><g clip-path="url(#42c1aa1766)"><g clip-path="url(#65c19e5489)"><g mask="url(#8686f0ef77)"><g transform="matrix(1, 0, 0, 1, 0.000000000000000056, 0.000000000000005638)"><g clip-path="url(#da2dc99f19)"><g clip-path="url(#c936dc9c28)"><path fill="url(#37629f9aa0)" d="M 0.472656 0 L 0.472656 150.5 L 723.027344 150.5 L 723.027344 0 Z M 0.472656 0 " fill-rule="nonzero"/></g></g></g></g></g></g></g></g></g></g></g></svg>